# Blender v2.80 (sub 75) OBJ File: 'cristal.blend'
# www.blender.org
mtllib cristal.mtl
o Cube
v 1.131747 1.514391 -1.000000
v 1.131747 1.514391 1.000000
v 0.866118 2.383139 0.000000
v 0.472994 -4.436071 0.000000
v -1.131747 1.514391 -1.000000
v 0.000000 -4.436071 -0.417933
v -1.131747 1.514391 1.000000
v 0.000000 -4.436071 0.417933
v -0.866118 2.383139 0.000000
v 0.000000 2.383139 0.765294
v -0.472994 -4.436071 0.000000
v 0.000000 2.383139 -0.765294
v 0.000000 3.241781 0.000000
v 0.000000 -4.924048 0.000000
vt 0.375000 0.250000
vt 0.000000 0.000000
vt 0.625000 0.250000
vt 0.500000 0.250000
vt 0.375000 0.250000
vt 0.375000 0.250000
vt 0.375000 0.000000
vt 0.375000 0.000000
vt 0.500000 0.000000
vt 0.375000 0.125000
vt 0.500000 0.125000
vt 0.625000 0.625000
vt 0.875000 0.750000
vt 0.000000 0.000000
vt 0.625000 0.250000
vt 0.000000 0.000000
vt 0.875000 0.750000
vt 0.375000 0.125000
vn 0.6494 -0.1954 0.7349
vn 0.0000 0.2608 0.9654
vn 0.0000 0.2608 -0.9654
vn 0.5001 0.6554 0.5660
vn 0.5001 0.6554 -0.5660
vn 0.6494 -0.1954 -0.7349
vn 0.9939 -0.1100 0.0000
vn 0.5572 -0.5401 0.6307
vn 0.5572 -0.5401 -0.6307
vn 0.9563 0.2924 0.0000
vn -0.6494 -0.1954 0.7349
vn 0.0000 -0.0974 0.9952
vn 0.0000 -0.0974 -0.9952
vn -0.5001 0.6554 0.5660
vn -0.5001 0.6554 -0.5660
vn -0.6494 -0.1954 -0.7349
vn -0.9939 -0.1100 0.0000
vn -0.5572 -0.5401 0.6307
vn -0.5572 -0.5401 -0.6307
vn -0.9563 0.2924 0.0000
usemtl Material
s off
f 8/1/1 4/2/1 2/3/1
f 10/4/2 7/5/2 2/6/2
f 1/7/3 5/8/3 12/9/3
f 3/10/4 13/11/4 10/4/4 2/6/4
f 1/7/5 12/9/5 13/11/5 3/10/5
f 6/12/6 1/13/6 4/2/6
f 4/2/7 1/13/7 2/3/7
f 8/1/8 14/14/8 4/2/8
f 4/2/9 14/14/9 6/12/9
f 3/10/10 2/3/10 1/7/10
f 8/1/11 7/15/11 11/16/11
f 8/1/12 2/6/12 7/15/12
f 6/12/13 5/17/13 1/7/13
f 9/18/14 7/5/14 10/4/14 13/11/14
f 5/8/15 9/18/15 13/11/15 12/9/15
f 6/12/16 11/16/16 5/17/16
f 11/16/17 7/15/17 5/17/17
f 8/1/18 11/16/18 14/14/18
f 11/16/19 6/12/19 14/14/19
f 9/18/20 5/8/20 7/15/20
